<svg width="24" height="24" viewBox="0 0 24 24" fill="none" xmlns="http://www.w3.org/2000/svg">
<path d="M2.243 6.85401L11.49 1.31001C11.6454 1.21675 11.8233 1.1675 12.0045 1.1675C12.1857 1.1675 12.3636 1.21675 12.519 1.31001L21.757 6.85501C21.8311 6.89942 21.8925 6.96229 21.9351 7.03747C21.9776 7.11266 22 7.1976 22 7.28401V20C22 20.2652 21.8946 20.5196 21.7071 20.7071C21.5196 20.8946 21.2652 21 21 21H3C2.73478 21 2.48043 20.8946 2.29289 20.7071C2.10536 20.5196 2 20.2652 2 20V7.28301C1.99998 7.1966 2.02236 7.11166 2.06495 7.03647C2.10753 6.96129 2.16888 6.89842 2.243 6.85401ZM4 8.13301V19H20V8.13201L12 3.33201L4 8.13201V8.13301ZM12.06 13.7L17.36 9.23701L18.648 10.767L12.074 16.3L5.364 10.77L6.636 9.22801L12.06 13.7Z" fill="black"/>
</svg>
