<svg width="20" height="20" viewBox="0 0 20 20" fill="none" xmlns="http://www.w3.org/2000/svg">
<path d="M10 17.421L13.85 13.382C14.8746 12.2869 15.4447 10.8432 15.4447 9.34349C15.4447 7.84376 14.8746 6.40011 13.85 5.30499C13.3573 4.77701 12.7613 4.35602 12.0989 4.06817C11.4366 3.78033 10.7222 3.63179 10 3.63179C9.27783 3.63179 8.56339 3.78033 7.90107 4.06817C7.23874 4.35602 6.64271 4.77701 6.15 5.30499C5.12536 6.40011 4.5553 7.84376 4.5553 9.34349C4.5553 10.8432 5.12536 12.2869 6.15 13.382L10 17.421ZM10 19.728L5.05 14.536C3.73256 13.1279 2.99959 11.2718 2.99959 9.34349C2.99959 7.41521 3.73256 5.55903 5.05 4.15099C5.68351 3.47222 6.44986 2.93099 7.30141 2.56094C8.15296 2.1909 9.07152 1.99994 10 1.99994C10.9285 1.99994 11.847 2.1909 12.6986 2.56094C13.5501 2.93099 14.3165 3.47222 14.95 4.15099C16.2674 5.55903 17.0004 7.41521 17.0004 9.34349C17.0004 11.2718 16.2674 13.1279 14.95 14.536L10 19.728ZM10 10.975C10.3261 10.9906 10.6495 10.9081 10.9283 10.7382C11.2071 10.5683 11.4286 10.3188 11.5643 10.0218C11.6999 9.72479 11.7435 9.39398 11.6894 9.07199C11.6353 8.75 11.4859 8.45161 11.2606 8.2153C11.0353 7.97899 10.7444 7.8156 10.4253 7.7462C10.1063 7.67679 9.77378 7.70456 9.47066 7.82591C9.16755 7.94727 8.90775 8.15665 8.72475 8.42706C8.54176 8.69746 8.44397 9.01648 8.444 9.34299C8.43539 9.76533 8.59416 10.1739 8.88565 10.4797C9.17715 10.7854 9.57773 10.9635 10 10.975V10.975ZM10 12.607C9.15476 12.5863 8.35231 12.2309 7.76898 11.6188C7.18564 11.0068 6.86913 10.1882 6.889 9.34299C6.8694 8.4979 7.18603 7.67959 7.76934 7.06778C8.35264 6.45597 9.15494 6.1007 10 6.07999C10.8452 6.10069 11.6477 6.45611 12.231 7.06813C12.8144 7.68016 13.1309 8.49873 13.111 9.34399C13.1306 10.1891 12.814 11.0074 12.2307 11.6192C11.6474 12.231 10.8451 12.5863 10 12.607Z" fill="black"/>
</svg>
