<svg width="24" height="24" viewBox="0 0 24 24" fill="none" xmlns="http://www.w3.org/2000/svg">
<path d="M13.242 12.172L5.39301 20.021L3.97901 18.607L5.39301 17.192L2.91901 14.718L4.33301 13.303L6.80801 15.778L8.22601 14.364L6.10101 12.243L7.51501 10.827L9.63601 12.95L11.826 10.758C11.141 9.72258 10.865 8.46969 11.0514 7.24228C11.2378 6.01488 11.8734 4.90043 12.8349 4.11506C13.7964 3.32969 15.0153 2.92936 16.2552 2.99171C17.4951 3.05405 18.6677 3.57463 19.5455 4.45249C20.4234 5.33035 20.944 6.50293 21.0063 7.74284C21.0686 8.98275 20.6683 10.2016 19.8829 11.1631C19.0976 12.1246 17.9831 12.7602 16.7557 12.9466C15.5283 13.133 14.2754 12.857 13.24 12.172H13.242ZM13.879 5.87901C13.4592 6.29847 13.1733 6.83301 13.0573 7.41502C12.9414 7.99703 13.0007 8.60035 13.2276 9.14866C13.4546 9.69697 13.8392 10.1656 14.3326 10.4954C14.826 10.8251 15.4061 11.0011 15.9995 11.0011C16.5929 11.0011 17.1731 10.8251 17.6665 10.4954C18.1599 10.1656 18.5444 9.69697 18.7714 9.14866C18.9984 8.60035 19.0576 7.99703 18.9417 7.41502C18.8257 6.83301 18.5398 6.29847 18.12 5.87901C17.5575 5.3169 16.7948 5.00115 15.9995 5.00115C15.2043 5.00115 14.4415 5.3169 13.879 5.87901V5.87901Z" fill="black"/>
</svg>
