<svg width="24" height="24" viewBox="0 0 24 24" fill="none" xmlns="http://www.w3.org/2000/svg">
<path d="M14.634 10.682C13.6957 12.3305 12.3305 13.6957 10.682 14.634L9.8 13.4C9.65823 13.1988 9.44721 13.0569 9.20734 13.0015C8.96748 12.9462 8.71562 12.9812 8.5 13.1C7.08568 13.8729 5.52379 14.3378 3.917 14.464C3.66571 14.4839 3.4312 14.598 3.26043 14.7834C3.08966 14.9688 2.99521 15.2119 2.996 15.464V19.926C2.99475 20.1748 3.08627 20.4151 3.25269 20.6C3.41911 20.7849 3.64848 20.9011 3.896 20.926C6.1901 21.1633 8.50824 20.886 10.6816 20.1142C12.855 19.3424 14.8289 18.0956 16.4595 16.4645C18.0901 14.8335 19.3365 12.8594 20.1077 10.6858C20.879 8.51225 21.1558 6.19405 20.918 3.9C20.8932 3.65334 20.7777 3.42468 20.5938 3.25838C20.41 3.09208 20.1709 3 19.923 3H15.461C15.2089 2.99922 14.9658 3.09366 14.7804 3.26444C14.595 3.43521 14.4809 3.66971 14.461 3.921C14.3351 5.52621 13.8713 7.08666 13.1 8.5C12.9812 8.71563 12.9462 8.96748 13.0015 9.20735C13.0569 9.44721 13.1988 9.65823 13.4 9.8L14.638 10.684L14.634 10.682ZM17.156 10.025L15.256 8.668C15.7952 7.5041 16.1646 6.26885 16.353 5.00001H18.99C18.996 5.16601 18.999 5.33301 18.999 5.50001C18.999 9.08025 17.5768 12.5139 15.0453 15.0456C12.5138 17.5773 9.08025 18.9997 5.5 19C5.333 19 5.166 19 5 18.99V16.353C6.26899 16.1637 7.50425 15.7933 8.668 15.253L10.025 17.153C10.5713 16.9407 11.102 16.6901 11.613 16.403L11.671 16.37C13.6314 15.254 15.255 13.6304 16.371 11.67L16.404 11.612C16.6911 11.101 16.9417 10.5703 17.154 10.024L17.156 10.025Z" fill="black"/>
</svg>
