<svg width="500" height="500" viewBox="0 0 500 500" fill="none" xmlns="http://www.w3.org/2000/svg" xmlns:xlink="http://www.w3.org/1999/xlink">
<style>
                                #man_3 , #man_2 , #man_1 , #question_2 , #question_1 , #question_3 
                                ,#Group_35 , #Group_34 , #Group_33{
                                    transform-origin: center;
                                    transform-box: fill-box;
                                }
                                #man_3 ,  #man_1 , #Group_34{
                                    animation:translateY 2s linear infinite ;
                                }
                                #man_2 , #Group_33 , #Group_35{
                                    animation:translateX 2s linear infinite ;
                                }
                                #question_2 , #question_1{
                                    animation:rotate 2s linear infinite ;
                                }
                                #question_3{
                                    animation:rotateReverse 2s linear infinite ;
                                }
                                @keyframes translateY {

                                    0%,
                                    100% {
                                        transform: translateY(5px);
                                    }
                                
                                    50% {
                                        transform: translateY(-5px);
                                    }
                                }
                                @keyframes rotate {
                                    0% , 100% {
                                        transform: rotate(0deg)
                                    }
                                    50% {
                                        transform:  rotate(10deg);
                                    }
                                }
                                @keyframes rotateReverse {
                                    0% , 100% {
                                        transform: rotate(0deg)
                                    }
                                    50% {
                                        transform:  rotate(-10deg);
                                    }
                                }
                                @keyframes translateX {

                                    0%,
                                    100% {
                                        transform: translateX(5px);
                                    }
                                
                                    50% {
                                        transform: translateX(-5px);
                                    }
                                }
                            </style>
<g id="question 2">
<g id="Group 1">
<g id="question 1">
<g id="BACKGROUND">
<path id="Vector" d="M409.02 72.98C409.02 72.98 261.29 84.66 168.9 75.28C76.5099 65.9 50.89 60.45 53.61 111.69C56.34 162.93 61.24 287.76 56.34 350.99C51.43 414.22 102.67 394.6 205.7 393.51C308.72 392.42 370.87 407.14 410.11 393.51C449.35 379.88 436.82 323.19 435.73 262.69C434.64 202.18 453.17 138.41 443.91 107.88C434.64 77.34 418.29 72.44 409.02 72.98Z" fill="#DEF5FF"/>
</g>
<g id="OBJECTS">
<g id="Group">
<path id="Vector_2" d="M281.91 468.59C323.751 468.59 357.67 463.204 357.67 456.56C357.67 449.916 323.751 444.53 281.91 444.53C240.069 444.53 206.15 449.916 206.15 456.56C206.15 463.204 240.069 468.59 281.91 468.59Z" fill="#F0F0F0"/>
<path id="Vector_3" d="M249.37 458.01C364.809 458.01 458.39 450.748 458.39 441.79C458.39 432.832 364.809 425.57 249.37 425.57C133.932 425.57 40.3501 432.832 40.3501 441.79C40.3501 450.748 133.932 458.01 249.37 458.01Z" fill="#F0F0F0"/>
</g>
<g id="Group_2">
<path id="Vector_4" d="M187.52 408.34C187.52 408.34 182.13 403.18 173.53 389.04C164.93 374.9 163.19 364.38 173.04 366.43C182.89 368.48 188.61 388.72 188.61 388.72C188.61 388.72 176.53 353.54 187.61 342.74C198.69 331.94 201.23 344.71 200.75 357.54C200.27 370.37 195.64 399.88 195.64 399.88C195.64 399.88 207.77 367.94 216.93 373.02C226.09 378.1 211.54 402.55 211.54 402.55C211.54 402.55 229.27 385.57 230.92 392.33C232.57 399.08 218.53 412.21 218.53 412.21C218.53 412.21 239.67 413.26 232.93 415.67C226.19 418.08 161.37 419.49 169.57 414.78C177.76 410.06 187.52 408.34 187.52 408.34Z" fill="#2FA2E5"/>
<path id="Vector_5" d="M186.53 415.27L186.16 414.93L190.61 410.11C187.23 405.25 172.03 383.18 173.43 381.36C173.54 381.22 173.76 381.08 174.2 381.24C177.91 382.59 185.8 391.6 187.92 394.08C187.34 388.22 184.21 354.09 189.48 349.01C190.03 348.48 190.66 348.26 191.35 348.36C198.99 349.45 195.37 396.61 194.71 404.52C197.4 400.19 208.85 382.15 212.64 382.15C212.66 382.15 212.68 382.15 212.71 382.15C213.02 382.17 213.44 382.31 213.71 382.89C215.77 387.35 209.88 401.63 208.33 405.22C211.72 402.91 223.9 394.85 226.18 396.79C226.78 397.3 226.7 398.33 225.94 399.92C222.16 407.79 214.69 412.62 212.16 414.08H221.51V414.58H210.13L211.08 414.11C211.18 414.06 220.99 409.07 225.49 399.7C226.12 398.38 226.25 397.5 225.86 397.17C224.18 395.75 214.2 401.75 207.9 406.13L207.16 406.64L207.53 405.82C207.61 405.64 215.48 387.91 213.26 383.1C213.08 382.71 212.85 382.66 212.68 382.65C212.66 382.65 212.64 382.65 212.63 382.65C209.38 382.65 198.52 399.25 194.59 405.68L194.03 406.59L194.12 405.53C195.83 386.31 197.44 349.74 191.28 348.86C190.74 348.79 190.27 348.95 189.83 349.37C184.36 354.64 188.46 394.42 188.5 394.82L188.59 395.63L188.06 395C187.96 394.88 178.12 383.19 174.03 381.7C173.87 381.64 173.82 381.66 173.82 381.66C173.05 382.7 182.01 396.88 191.13 409.98L191.24 410.14L186.53 415.27Z" fill="#EBF4F2"/>
</g>
<g id="Group_3">
<path id="Vector_6" d="M371.29 412.75C371.29 412.75 374.19 409.97 378.82 402.37C383.45 394.76 384.38 389.11 379.08 390.21C373.78 391.31 370.71 402.2 370.71 402.2C370.71 402.2 377.21 383.28 371.25 377.47C365.29 371.66 363.93 378.53 364.18 385.43C364.44 392.33 366.93 408.21 366.93 408.21C366.93 408.21 360.41 391.03 355.48 393.76C350.55 396.49 358.38 409.64 358.38 409.64C358.38 409.64 348.84 400.51 347.95 404.14C347.06 407.77 354.61 414.83 354.61 414.83C354.61 414.83 343.24 415.39 346.86 416.69C350.48 417.99 385.35 418.74 380.94 416.21C376.54 413.67 371.29 412.75 371.29 412.75Z" fill="#2FA2E5"/>
<path id="Vector_7" d="M371.74 416.55L369.14 413.73L369.26 413.56C373.77 407.09 378.44 399.79 378.56 398.54C376.28 399.48 371.15 405.58 371.09 405.64L370.56 406.27L370.64 405.46C370.66 405.25 372.86 383.9 369.96 381.11C369.75 380.91 369.53 380.83 369.28 380.86C366.29 381.29 366.78 399.25 367.85 411.22L367.94 412.28L367.38 411.37C364.46 406.58 359.28 399.04 357.78 399.04C357.77 399.04 357.76 399.04 357.76 399.04C357.69 399.04 357.62 399.07 357.55 399.22C356.38 401.76 360.59 411.25 360.64 411.35L361.01 412.17L360.27 411.66C356.8 409.25 351.55 406.15 350.75 406.83C350.69 406.88 350.53 407.12 350.98 408.05C353.38 413.05 358.62 415.72 358.68 415.75L359.63 416.22H353.02V415.72H357.63C356.01 414.73 352.42 412.2 350.54 408.27C350.38 407.94 349.89 406.92 350.44 406.45C351.66 405.41 357.52 409.18 359.85 410.76C358.84 408.36 356.05 401.33 357.11 399.02C357.28 398.65 357.55 398.56 357.75 398.55C357.76 398.55 357.78 398.55 357.79 398.55C359.8 398.55 365.4 407.22 367.28 410.23C366.79 404.35 365.13 380.96 369.23 380.38C369.63 380.32 370.01 380.45 370.33 380.76C373.11 383.43 371.62 400.74 371.24 404.73C372.65 403.1 376.53 398.76 378.43 398.07C378.75 397.95 378.91 398.09 378.97 398.17C379.73 399.16 372.9 409.22 369.79 413.7L372.12 416.22L371.74 416.55Z" fill="#EBF4F2"/>
</g>
<g id="man_3">
<g id="Group_4">
<g id="Group_5">
<path id="Vector_8" d="M67.07 424.65C67.07 424.65 63.32 432.15 61.71 436.16C60.1 440.18 58.76 444.73 61.98 445.8C65.19 446.87 79.12 445.8 79.12 445.8C79.12 445.8 82.33 444.73 82.33 441.25C82.33 437.77 80.72 427.33 80.72 427.33L67.07 424.65Z" fill="#4FBEF5"/>
<path id="Vector_9" d="M79.1199 445.8C79.1199 445.8 81.4799 445.01 82.1499 442.59H60.0299C60.0199 444.12 60.5399 445.32 61.9899 445.8C65.1999 446.88 79.1199 445.8 79.1199 445.8Z" fill="#180A61"/>
</g>
<g id="Group_6">
<path id="Vector_10" d="M147.67 426.52C147.67 426.52 157.85 432.95 161.06 434.29C164.27 435.63 168.83 436.43 168.56 438.84C168.29 441.25 168.29 443.39 167.22 443.93C166.15 444.47 154.1 445.54 148.74 444.73C143.38 443.93 140.17 444.19 138.03 444.19C135.89 444.19 130.26 444.73 128.93 441.51C127.59 438.3 130.54 428.66 130.54 428.66C130.54 428.66 143.12 426.26 147.67 426.52Z" fill="#4FBEF5"/>
<path id="Vector_11" d="M167.22 443.93C167.9 443.59 168.15 442.59 168.31 441.29C157.97 444.59 144.96 440.55 139.1 439.38C134.93 438.55 130.97 438.85 128.58 439.21C128.58 440.13 128.68 440.94 128.93 441.53C130.27 444.74 135.89 444.21 138.03 444.21C140.17 444.21 143.39 443.94 148.74 444.75C154.1 445.54 166.15 444.47 167.22 443.93Z" fill="#180A61"/>
</g>
<path id="Vector_12" d="M101.08 266.39L87.9599 358.77C87.9599 358.77 71.3599 413.13 69.4799 414.47C67.6099 415.81 64.9299 417.15 65.4599 419.29C65.9999 421.43 65.7299 427.32 65.7299 427.32H80.7299C80.7299 427.32 82.0699 424.91 84.2099 423.57C86.3499 422.23 86.3499 416.88 86.8899 413.66C87.4299 410.45 102.15 389.83 107.24 378.58C112.33 367.33 127.06 306.82 127.06 306.82L131.88 304.41C131.88 304.41 131.08 367.34 130.54 372.96C130 378.58 128.67 388.22 129.2 393.85C129.74 399.47 130 431.07 130 431.07L149.01 428.93C149.01 428.93 148.47 424.91 147.67 423.04C146.87 421.17 145.53 420.09 145.8 418.22C146.07 416.35 159.19 361.72 159.19 340.03C159.19 318.34 157.85 275.76 157.32 273.89C156.78 272.02 154.91 269.34 154.91 269.34L101.08 266.39Z" fill="#180A61"/>
</g>
<g id="Group_7">
<path id="Vector_13" d="M73.5 162.76L65.2 156.33L102.69 152.31L100.28 145.62C100.28 145.62 73.23 142.67 59.31 140.8C45.39 138.93 33.6 138.93 36.01 145.89C38.42 152.85 61.98 180.17 61.98 180.17L73.5 162.76Z" fill="#F6B885"/>
<path id="Vector_14" d="M96.65 152.97L102.68 152.32L100.27 145.63C100.27 145.63 97.69 145.35 93.73 144.91L96.65 152.97Z" fill="#DD9766"/>
<path id="Vector_15" d="M56.9761 147.416L56.269 148.123L64.8391 156.693L65.5462 155.986L56.9761 147.416Z" fill="#180A61"/>
</g>
<g id="Group_8">
<path id="Vector_16" d="M110 161.62C110 161.62 110.86 179.32 110.65 183.85C110.43 188.38 118.42 203.92 125.76 202.2C133.1 200.47 132.67 190.98 131.59 185.58C130.51 180.18 129.86 169.39 129.86 169.39L110 161.62Z" fill="#F6B885"/>
<path id="Vector_17" d="M129.86 169.39L110 161.62C110 161.62 110.14 164.43 110.29 168.09L130.76 179.9C130.19 174.82 129.86 169.39 129.86 169.39Z" fill="#DD9766"/>
</g>
<g id="Group_9">
<path id="Vector_18" d="M105.4 129.16C105.4 129.16 97.3299 132.44 97.8299 143.28C98.3299 154.12 105.14 161.69 107.92 164.21C110.69 166.73 130.11 175.56 136.16 173.29C142.21 171.02 136.92 149.33 136.16 144.04C135.4 138.74 133.03 131.96 123.55 128.4C111.45 123.86 105.4 129.16 105.4 129.16Z" fill="#F6B885"/>
<path id="Vector_19" d="M106.66 154.88C106.66 154.88 97.08 147.57 96.83 154.88C96.58 162.19 106.16 163.2 107.67 161.94" fill="#F6B885"/>
<path id="Vector_20" d="M126.45 155.05L126.42 154.05C127.84 154 131.74 153.71 132.79 152.93C132.94 151.87 130.45 148.68 129.25 147.15C128.5 146.19 128.07 145.64 127.92 145.33C127.36 144.22 127.01 141.44 127 141.32L127.99 141.2C128.08 141.96 128.42 144.09 128.82 144.89C128.94 145.13 129.48 145.81 130.05 146.54C132.21 149.3 133.99 151.7 133.81 153.01C133.77 153.32 133.63 153.57 133.4 153.74C131.9 154.84 127 155.03 126.45 155.05Z" fill="#180A61"/>
<path id="Vector_21" d="M134.97 159.32C135.21 160.26 134.88 161.15 134.22 161.32C133.57 161.49 132.84 160.87 132.6 159.93C132.36 158.99 132.69 158.1 133.35 157.93C134 157.76 134.73 158.38 134.97 159.32Z" fill="#180A61"/>
<path id="Vector_22" d="M123.21 145.72C123.45 146.66 123.12 147.55 122.46 147.72C121.81 147.89 121.08 147.27 120.84 146.33C120.6 145.39 120.93 144.5 121.59 144.33C122.24 144.16 122.97 144.78 123.21 145.72Z" fill="#180A61"/>
<path id="Vector_23" d="M133.66 144.33C133.9 145.27 133.57 146.16 132.91 146.33C132.26 146.5 131.53 145.88 131.29 144.94C131.05 144 131.38 143.11 132.04 142.94C132.69 142.77 133.42 143.39 133.66 144.33Z" fill="#180A61"/>
<path id="Vector_24" d="M115.9 142.7L115.28 141.91C115.43 141.8 118.87 139.12 122.24 140.44L121.88 141.37C119.04 140.27 115.93 142.67 115.9 142.7Z" fill="#180A61"/>
<path id="Vector_25" d="M134.2 140.94C133.87 140.21 133.4 139.76 132.76 139.55C131.3 139.08 129.5 140.1 129.48 140.11L128.98 139.24C129.07 139.19 131.18 137.99 133.06 138.59C133.97 138.88 134.65 139.53 135.1 140.51L134.2 140.94Z" fill="#180A61"/>
</g>
<g id="Group_10">
<path id="Vector_26" d="M110.44 178.89L117.78 299.55C117.78 299.55 105.48 296.53 97.7099 293.29C89.9399 290.05 89.94 290.05 89.94 290.05L96.8499 246.23L89.5 209.1L58.2 182.55L73.5 162.76C73.5 162.76 94.03 178.23 95.11 178.45C96.19 178.67 110.44 178.89 110.44 178.89Z" fill="#4FBEF5"/>
<path id="Vector_27" d="M106.98 179.1C106.98 179.1 105.9 177.37 104.17 186.01C102.44 194.64 101.58 209.11 101.58 209.11L112.24 208.14L110.43 178.9L106.98 179.1Z" fill="#71CAF6"/>
</g>
<path id="Vector_28" d="M169.63 230.24C169.63 230.24 182.75 194.63 185.96 192.48C189.17 190.34 197.74 188.46 199.35 187.12C200.96 185.78 203.9 179.89 205.51 182.57C207.12 185.25 201.23 189.8 201.23 189.8C201.23 189.8 211.67 187.39 212.74 186.85C213.81 186.31 217.02 182.83 216.76 185.24C216.49 187.65 212.21 193.27 205.78 197.29C199.35 201.31 186.77 201.84 186.77 201.84C186.77 201.84 180.07 241.81 178.2 247.63C175.79 255.13 172.31 263.16 166.95 258.34C161.59 253.52 150.08 237.19 150.08 237.19L165.08 227.01L169.63 230.24Z" fill="#F6B885"/>
<path id="Vector_29" d="M165.08 227.03L150.08 237.21C150.08 237.21 155.05 244.26 159.98 250.47L160.17 250.58L169.62 230.25L165.08 227.03Z" fill="#DD9766"/>
<g id="Group_11">
<path id="Vector_30" d="M131.88 183.92C131.88 183.92 140.98 219.8 143.93 236.94C146.88 254.08 152.77 296.92 152.77 296.92L165.62 290.49L157.05 240.42L169.64 230.24C169.64 230.24 159.2 204 155.72 197.3C152.24 190.61 153.31 190.34 151.44 189C149.55 187.67 131.88 183.92 131.88 183.92Z" fill="#4FBEF5"/>
<path id="Vector_31" d="M138.03 185.26L147.67 207.75L137.77 207.21L131.88 183.92L138.03 185.26Z" fill="#71CAF6"/>
<g id="Group_12">
<path id="Vector_32" d="M154.607 205.827L153.611 205.912L156.558 240.457L157.554 240.372L154.607 205.827Z" fill="#2FA2E5"/>
</g>
</g>
</g>
<g id="man_1">
<g id="Group_21">
<g id="Group_22">
<path id="Vector_59" d="M439.3 435.11C439.3 435.11 440.3 443.43 439.19 443.87C438.08 444.31 425.81 444.53 425.81 444.53H413.33H405.45C405.45 444.53 404.52 440.15 406.11 438.62C407.7 437.09 416.45 431.39 419.18 428.55C421.91 425.7 423.75 423.51 423.75 423.51L439.3 435.11Z" fill="#FFFEFF"/>
<path id="Vector_60" d="M439.71 440.87C439.73 442.41 439.61 443.7 439.19 443.86C438.08 444.3 425.81 444.52 425.81 444.52H413.33H405.45C405.45 444.52 405.23 443.49 405.19 442.25L439.71 440.87Z" fill="#180A61"/>
</g>
<path id="Vector_61" d="M430.36 363.51C430.36 363.51 437.71 389.57 439.31 399.64C440.91 409.71 439.3 435.11 439.3 435.11C439.3 435.11 433.11 436.64 430.12 434.67C427.13 432.7 423.65 432.04 423.65 432.04C423.65 432.04 426.2 416.49 426.7 403.14C427.2 389.78 428.55 382.78 427.34 374.24C426.12 365.7 428.14 358.47 430.36 363.51Z" fill="#180A61"/>
</g>
<g id="Group_23">
<path id="Vector_62" d="M405.97 424.6C405.97 424.6 404.1 427.67 394.48 433.14C384.86 438.61 378.1 437.96 378.24 439.93C378.39 441.9 378.96 444.09 381.57 444.53C384.18 444.97 425.8 444.53 425.8 444.53C425.8 444.53 426.88 444.97 427.2 442.12C427.53 439.27 427.7 434.68 427.11 432.7C426.54 430.73 405.97 424.6 405.97 424.6Z" fill="#FFFEFF"/>
<path id="Vector_63" d="M427.21 442.12C426.88 444.97 425.81 444.53 425.81 444.53C425.81 444.53 384.19 444.97 381.58 444.53C380.13 444.29 379.32 443.49 378.85 442.51L427.21 442.12Z" fill="#180A61"/>
</g>
<path id="Vector_64" d="M390.29 272.24C390.29 272.24 394.03 298.26 393.46 307.67C392.89 317.09 397.49 358.25 399.94 368.76C402.4 379.27 405.57 399.85 405.38 404.89C405.19 409.93 404.02 417.81 404.02 417.81C404.02 417.81 402.8 421.09 402.96 422.85C403.11 424.6 403.24 427.01 403.24 427.01C403.24 427.01 407.98 429.2 414.45 431.61C420.93 434.02 427.25 434.89 427.25 434.89C427.25 434.89 429.3 420.88 431.14 406.86C432.98 392.85 433.54 377.74 431.9 362.85C430.26 347.96 431.7 326.94 432.63 319.71C433.56 312.48 437.31 299.78 437.67 290.15C438.03 280.52 433.66 268.69 433.66 268.69C433.66 268.69 420.76 273.73 408.73 273.29C396.7 272.85 393.52 270.22 393.52 270.22L390.29 272.24Z" fill="#212382"/>
<g id="Group_24">
<path id="Vector_65" d="M387.76 180.3C387.76 180.3 389.78 182.83 388.67 184.1C387.57 185.37 385.52 183.68 385.52 183.68C385.52 183.68 384.14 186.85 384.69 188.96C385.24 191.07 389.62 186.85 390.52 185.37C391.42 183.89 394.24 181.78 395.92 181.99C397.6 182.2 395.61 184.73 393.85 186.42C392.1 188.11 389.77 194.02 388.62 196.34C387.48 198.66 382.94 201.41 382.94 201.41L380.35 221.94C380.35 221.94 397.85 196.25 398.76 195.2C399.68 194.14 403.31 200.65 400.74 208.22C398.17 215.79 393.1 238.66 392.01 239.36C390.93 240.06 367.08 252.2 359.69 252.2C352.3 252.2 357.16 235.13 357.16 235.13L372.93 203.51C372.93 203.51 370.51 194.85 372.32 191.48C374.13 188.1 381.2 185.57 381.2 185.57C381.2 185.57 383.43 177.34 387.76 180.3Z" fill="#FED2A3"/>
<path id="Vector_66" d="M357.19 235.14L363.65 222.19C365.21 228.28 368 229.6 371.25 230.92C374.72 232.33 380.15 228.1 380.15 228.1L380.38 221.94C380.38 221.94 397.88 196.25 398.79 195.2C399.71 194.14 403.34 200.65 400.77 208.22C398.2 215.79 393.13 238.66 392.04 239.36C390.95 240.06 367.11 252.2 359.72 252.2C352.33 252.2 357.19 235.14 357.19 235.14Z" fill="#4EBDF4"/>
<path id="Vector_67" d="M380.624 228.093L379.625 228.12L379.903 238.296L380.902 238.269L380.624 228.093Z" fill="#180A61"/>
<g id="Group_25">
<path id="Vector_68" d="M381.23 185.58C381.23 185.58 386.57 192.56 385.12 193.8C383.67 195.03 378.58 199.25 376.48 198.9C374.38 198.55 372.64 193.45 373.71 193.09C374.78 192.74 375.78 194.32 375.78 194.32" fill="#FED2A3"/>
<path id="Vector_69" d="M376.73 199.41C376.62 199.41 376.51 199.4 376.4 199.38C374.45 199.05 373.02 195.77 372.9 194.09C372.82 193.07 373.21 192.72 373.56 192.61C374.99 192.15 376.16 193.97 376.2 194.05L375.35 194.58C375.14 194.26 374.43 193.37 373.86 193.56C373.81 193.7 373.87 194.69 374.44 195.97C375.04 197.33 375.87 198.28 376.56 198.39C377.77 198.6 380.86 196.73 384.79 193.4C385.36 192.92 383.47 189.33 380.83 185.87L381.62 185.26C383.31 187.47 387.08 192.77 385.44 194.16C382.58 196.6 378.81 199.41 376.73 199.41Z" fill="#180A61"/>
</g>
</g>
<path id="Vector_70" d="M418.2 167.52C418.2 167.52 402.1 182.53 400.37 185.74C398.64 188.96 394.19 213.43 390.9 231.29C387.54 249.53 382.26 270.55 389.88 273.09C389.88 273.09 397.67 275.81 407.57 276.35C417.46 276.89 434.74 270.14 434.74 270.14L445.06 223.25C445.06 223.25 443.88 199.79 442.22 194.16C440.55 188.54 424.22 171.28 418.2 167.52Z" fill="#4EBDF4"/>
<g id="Group_26">
<g id="Group_27">
<g id="Group_28">
<path id="Vector_71" d="M403.72 154.62L419.61 172.94L401.56 185.74C401.56 185.74 397.86 180.63 396.01 179.72C394.16 178.8 390.85 176.71 390.85 176.71C390.85 176.71 397.52 159.39 398.1 157.38C398.68 155.37 399.78 152.61 399.78 152.61L403.72 154.62Z" fill="#FED2A3"/>
<path id="Vector_72" d="M397.28 159.7L399.63 156.93L398.49 160.37C398.49 160.37 401.26 178.64 400.62 184.5C399.4 182.93 397.27 180.34 396.01 179.72C394.16 178.8 390.85 176.71 390.85 176.71C390.85 176.71 395.36 164.97 397.28 159.7Z" fill="#DD9766"/>
</g>
<path id="Vector_73" d="M364.62 150.65C364.62 150.65 363.5 153.49 361.03 154.5C358.56 155.51 353 147.21 354.75 143.56C356.5 139.91 364.71 131.61 370.9 128.57C377.09 125.53 389.65 120.06 396.07 127.15C402.49 134.24 402.55 143.56 403.75 149.23C404.96 154.9 406.96 155.51 405.89 157.13C404.82 158.75 401.74 159.76 399.62 156.93C397.5 154.09 394.74 157.34 392.91 157.54C391.08 157.74 389.59 154.1 388.13 155.31C386.67 156.53 381.99 157.13 380.08 153.89C378.18 150.65 377.13 145.99 377.13 145.99L364.62 150.65Z" fill="#180A61"/>
<g id="Group_29">
<path id="Vector_74" d="M364.62 150.65C364.62 150.65 367.59 157.94 368.53 159.97C369.47 162 372.41 164.43 372.41 164.43C372.41 164.43 371.69 172.94 372.27 173.54C372.85 174.15 377.3 174.35 377.3 174.35C377.3 174.35 386.13 182.05 387.75 182.05C389.37 182.05 392.87 180.63 394.15 178.81C395.43 176.99 398.62 172.94 399.14 169.9C399.66 166.86 398.48 160.38 398.48 160.38C398.48 160.38 402.55 159.97 402.88 156.53C403.21 153.09 401.55 148.63 399.54 148.43C397.52 148.23 395.27 154.3 395.27 154.3L392.38 155.72C392.38 155.72 390.19 149.24 388.97 149.44C387.75 149.64 382.95 153.29 381.61 151.26C380.27 149.23 381.04 139.31 379.82 139.51C378.6 139.71 364.62 150.65 364.62 150.65Z" fill="#FED2A3"/>
<path id="Vector_75" d="M375.77 163.04C376.08 164.35 376.88 165.26 377.55 165.08C378.22 164.9 378.52 163.69 378.2 162.38C377.89 161.07 377.09 160.16 376.42 160.34C375.75 160.52 375.46 161.73 375.77 163.04Z" fill="#180A61"/>
<path id="Vector_76" d="M372.82 160.56L371.9 160.18C372.62 158.43 373.63 157.35 374.89 156.98C376.62 156.46 378.14 157.49 378.21 157.53L377.65 158.36C377.64 158.35 376.44 157.56 375.17 157.94C374.21 158.23 373.42 159.11 372.82 160.56Z" fill="#180A61"/>
</g>
</g>
<path id="Vector_77" d="M424.81 169.67L398 191.64L398.43 180.12L418.12 162.43L424.81 169.67Z" fill="#71CAF6"/>
</g>
<g id="Group_30">
<path id="Vector_78" d="M409.69 188.17C409.69 188.17 423.52 169.61 432.32 177.92C436.45 181.82 454.92 217.36 458.68 224.33C462.44 231.3 468.57 239.34 464.96 242.82C461.35 246.3 434.73 270.15 434.73 270.15C434.73 270.15 438.11 272.83 437.76 275.24C437.4 277.65 436.8 279.53 436.8 279.53L437.21 283.01C437.21 283.01 427.89 288.64 425.6 285.42C423.31 282.2 417.57 277.92 420.1 274.7C422.63 271.48 427.35 267.2 427.35 267.2L441.4 235.31L421.62 210.41" fill="#71CAF6"/>
<path id="Vector_79" d="M427.35 267.21L436.97 245.37C438.47 249.11 441.86 254.39 449.36 257.02C441.94 263.7 434.75 270.15 434.75 270.15C434.75 270.15 438.13 272.83 437.78 275.24C437.42 277.65 436.82 279.53 436.82 279.53L437.23 283.01C437.23 283.01 427.91 288.64 425.62 285.42C423.33 282.2 417.59 277.92 420.12 274.7C422.63 271.49 427.35 267.21 427.35 267.21Z" fill="#FED2A3"/>
<g id="Group_31">
<path id="Vector_80" d="M432.07 278.72C434.5 278.44 436.4 278.2 436.4 278.2C436.4 278.2 437.94 275.87 438.79 278.76C439.65 281.65 439.19 283.58 437.62 284.16C436.06 284.74 427.75 288.94 426.25 286.58C426.07 286.3 423.45 282.67 423.28 282.4" fill="#FED2A3"/>
</g>
<g id="Group_32">
<path id="Vector_81" d="M426.55 272.76C426.55 272.76 430 273.34 430.13 275.07C430.26 276.81 428.79 279.89 428.79 279.89C428.79 279.89 435.37 279.31 435.31 280.85C435.25 282.39 429.03 283.74 427.87 283.94C426.71 284.13 425.13 284.9 423.3 282.4C421.46 279.89 420.94 278.54 420.94 278.54" fill="#FED2A3"/>
<path id="Vector_82" d="M426.2 284.71C425.23 284.71 424.08 284.33 422.89 282.7C421.04 280.17 420.49 278.79 420.46 278.73L421.39 278.36C421.4 278.37 421.93 279.7 423.69 282.11C425.1 284.04 426.21 283.79 427.28 283.56C427.45 283.52 427.62 283.49 427.77 283.46C430.52 283 434.77 281.65 434.8 280.85C434.63 280.42 431.97 280.13 428.82 280.4L427.95 280.48L428.32 279.69C428.71 278.86 429.71 276.43 429.61 275.12C429.53 274.02 427.24 273.39 426.45 273.26L426.62 272.27C427.01 272.34 430.46 272.97 430.62 275.04C430.72 276.35 430.02 278.28 429.58 279.34C431.25 279.24 434.52 279.18 435.47 280.08C435.7 280.3 435.82 280.58 435.81 280.88C435.73 283.09 428.02 284.43 427.95 284.44C427.81 284.46 427.66 284.5 427.51 284.53C427.13 284.62 426.69 284.71 426.2 284.71Z" fill="#180A61"/>
</g>
<path id="Vector_83" d="M441.799 234.987L441.031 235.628L448.46 244.525L449.228 243.884L441.799 234.987Z" fill="#180A61"/>
</g>
</g>
<g id="Group_33">
<path id="Vector_84" d="M140.88 73.39C140.88 53.02 124.37 36.51 104 36.51C83.6301 36.51 67.1201 53.02 67.1201 73.39C67.1201 93.76 83.6301 110.27 104 110.27C106.47 110.27 108.89 110.02 111.23 109.56L116.93 117.46L119.49 106.86C132.12 101.01 140.88 88.23 140.88 73.39Z" fill="#2FA2E5"/>
<g id="question_3">
<path id="Vector_85" d="M91.8401 54.4C92.6301 53.74 93.4901 53.12 94.4201 52.54C95.3501 51.96 96.3501 51.46 97.4101 51.02C98.4801 50.58 99.6201 50.24 100.85 50C102.08 49.75 103.41 49.63 104.84 49.63C106.85 49.63 108.66 49.9 110.27 50.43C111.88 50.96 113.25 51.73 114.39 52.72C115.52 53.71 116.39 54.91 117 56.31C117.61 57.71 117.91 59.26 117.91 60.97C117.91 62.59 117.69 64 117.24 65.18C116.79 66.37 116.23 67.4 115.54 68.27C114.86 69.15 114.1 69.9 113.28 70.54C112.46 71.18 111.68 71.77 110.94 72.32C110.2 72.86 109.56 73.4 109.02 73.94C108.48 74.47 108.13 75.07 107.98 75.73L107.08 80.21H100.29L99.5901 75.05C99.4201 74 99.5301 73.09 99.9101 72.31C100.29 71.53 100.82 70.83 101.5 70.2C102.17 69.57 102.93 68.97 103.76 68.41C104.59 67.84 105.37 67.24 106.1 66.58C106.83 65.93 107.44 65.2 107.94 64.4C108.44 63.6 108.69 62.64 108.69 61.53C108.69 60.25 108.27 59.23 107.43 58.47C106.59 57.71 105.43 57.33 103.96 57.33C102.83 57.33 101.88 57.45 101.13 57.68C100.37 57.92 99.7201 58.18 99.1801 58.46C98.6401 58.75 98.1601 59.01 97.7501 59.24C97.3401 59.48 96.9401 59.59 96.5301 59.59C95.6101 59.59 94.9301 59.2 94.4801 58.4L91.8401 54.4ZM97.7301 91.78C97.7301 91.01 97.8701 90.3 98.1601 89.63C98.4501 88.97 98.8401 88.39 99.3501 87.9C99.8501 87.41 100.44 87.02 101.13 86.73C101.81 86.44 102.56 86.3 103.37 86.3C104.16 86.3 104.9 86.44 105.58 86.73C106.26 87.02 106.86 87.41 107.37 87.9C107.88 88.39 108.28 88.97 108.57 89.63C108.86 90.29 109 91.01 109 91.78C109 92.55 108.86 93.27 108.57 93.94C108.28 94.61 107.88 95.19 107.37 95.69C106.86 96.18 106.26 96.57 105.58 96.84C104.9 97.12 104.16 97.26 103.37 97.26C102.56 97.26 101.81 97.12 101.13 96.84C100.45 96.56 99.8501 96.18 99.3501 95.69C98.8501 95.2 98.4501 94.62 98.1601 93.94C97.8801 93.26 97.7301 92.54 97.7301 91.78Z" fill="white"/>
</g>
</g>
<g id="Group_34">
<path id="Vector_86" d="M304.6 80.72C304.6 56.3 284.81 36.51 260.39 36.51C235.97 36.51 216.18 56.3 216.18 80.72C216.18 105.14 235.97 124.93 260.39 124.93C263.36 124.93 266.25 124.63 269.06 124.08L275.9 133.55L278.97 120.85C294.09 113.82 304.6 98.5 304.6 80.72Z" fill="#180A61"/>
<g id="question_1">
<path id="Vector_87" d="M245.41 57.64C246.39 56.82 247.45 56.05 248.6 55.34C249.75 54.63 250.99 54 252.31 53.46C253.63 52.92 255.05 52.5 256.57 52.19C258.09 51.89 259.74 51.73 261.51 51.73C263.99 51.73 266.23 52.06 268.23 52.72C270.23 53.38 271.92 54.33 273.33 55.56C274.73 56.79 275.81 58.27 276.56 60C277.31 61.73 277.69 63.65 277.69 65.77C277.69 67.78 277.41 69.52 276.86 70.98C276.3 72.45 275.6 73.72 274.76 74.81C273.91 75.89 272.98 76.83 271.96 77.63C270.94 78.42 269.98 79.16 269.07 79.83C268.16 80.5 267.37 81.17 266.69 81.83C266.02 82.49 265.59 83.23 265.4 84.05L264.29 89.6H255.88L255 83.22C254.79 81.93 254.92 80.8 255.4 79.83C255.88 78.87 256.53 77.99 257.36 77.21C258.19 76.43 259.12 75.69 260.16 74.99C261.19 74.29 262.16 73.54 263.05 72.73C263.95 71.92 264.71 71.03 265.33 70.03C265.95 69.04 266.26 67.86 266.26 66.48C266.26 64.89 265.74 63.63 264.69 62.69C263.65 61.75 262.21 61.28 260.39 61.28C258.99 61.28 257.82 61.43 256.88 61.72C255.94 62.01 255.14 62.33 254.46 62.69C253.79 63.05 253.2 63.37 252.7 63.66C252.2 63.95 251.7 64.1 251.19 64.1C250.05 64.1 249.21 63.61 248.65 62.63L245.41 57.64ZM252.7 103.92C252.7 102.97 252.88 102.08 253.24 101.26C253.6 100.44 254.09 99.73 254.71 99.12C255.33 98.51 256.06 98.03 256.91 97.67C257.76 97.31 258.68 97.13 259.69 97.13C260.67 97.13 261.58 97.31 262.43 97.67C263.28 98.03 264.02 98.51 264.65 99.12C265.28 99.73 265.78 100.44 266.14 101.26C266.5 102.08 266.68 102.96 266.68 103.92C266.68 104.87 266.5 105.76 266.14 106.6C265.78 107.43 265.29 108.15 264.65 108.76C264.02 109.37 263.28 109.84 262.43 110.19C261.58 110.53 260.67 110.71 259.69 110.71C258.68 110.71 257.76 110.54 256.91 110.19C256.06 109.85 255.33 109.37 254.71 108.76C254.09 108.15 253.6 107.43 253.24 106.6C252.88 105.76 252.7 104.87 252.7 103.92Z" fill="white"/>
</g>
</g>
<g id="Group_35">
<path id="Vector_88" d="M372.98 77.3C372.98 60.76 386.39 47.35 402.93 47.35C419.47 47.35 432.88 60.76 432.88 77.3C432.88 93.84 419.47 107.25 402.93 107.25C400.92 107.25 398.96 107.05 397.06 106.67L392.43 113.08L390.35 104.48C380.1 99.72 372.98 89.34 372.98 77.3Z" fill="#A4E1FE"/>
<g id="question_2">
<path id="Vector_89" d="M392.43 62.19C393.08 61.65 393.78 61.14 394.55 60.67C395.31 60.2 396.13 59.78 397.01 59.42C397.89 59.06 398.83 58.78 399.84 58.58C400.85 58.38 401.94 58.28 403.11 58.28C404.76 58.28 406.24 58.5 407.56 58.94C408.88 59.38 410.01 60 410.94 60.82C411.87 61.63 412.58 62.62 413.08 63.76C413.58 64.91 413.83 66.18 413.83 67.58C413.83 68.91 413.65 70.06 413.28 71.04C412.91 72.01 412.45 72.86 411.89 73.58C411.33 74.3 410.71 74.92 410.04 75.45C409.37 75.98 408.73 76.46 408.12 76.91C407.52 77.36 406.99 77.8 406.54 78.24C406.09 78.68 405.81 79.17 405.69 79.71L404.95 83.39H399.38L398.8 79.16C398.66 78.3 398.75 77.55 399.06 76.91C399.38 76.27 399.81 75.69 400.36 75.18C400.91 74.66 401.53 74.17 402.21 73.71C402.89 73.25 403.53 72.75 404.13 72.21C404.73 71.68 405.23 71.08 405.64 70.42C406.05 69.76 406.26 68.98 406.26 68.07C406.26 67.02 405.91 66.18 405.22 65.56C404.53 64.94 403.58 64.63 402.37 64.63C401.44 64.63 400.67 64.73 400.04 64.92C399.42 65.11 398.88 65.33 398.44 65.56C397.99 65.8 397.6 66.01 397.27 66.2C396.94 66.39 396.6 66.49 396.27 66.49C395.52 66.49 394.96 66.17 394.59 65.52L392.43 62.19ZM397.27 92.85C397.27 92.22 397.39 91.63 397.62 91.09C397.86 90.55 398.18 90.07 398.59 89.67C399 89.27 399.49 88.95 400.05 88.71C400.61 88.47 401.22 88.36 401.89 88.36C402.54 88.36 403.14 88.48 403.7 88.71C404.26 88.95 404.75 89.27 405.17 89.67C405.59 90.07 405.92 90.55 406.16 91.09C406.4 91.63 406.51 92.22 406.51 92.85C406.51 93.48 406.39 94.07 406.16 94.62C405.92 95.17 405.59 95.65 405.17 96.05C404.75 96.45 404.26 96.77 403.7 97C403.14 97.23 402.53 97.34 401.89 97.34C401.22 97.34 400.61 97.23 400.05 97C399.49 96.77 399 96.46 398.59 96.05C398.18 95.65 397.85 95.17 397.62 94.62C397.39 94.08 397.27 93.48 397.27 92.85Z" fill="white"/>
</g>
</g>
</g>
</g>
<rect id="logo 1" x="217" y="220" width="100" height="52.8046" fill="url(#pattern0)"/>
</g>
</g>
<defs>
<pattern id="pattern0" patternContentUnits="objectBoundingBox" width="1" height="1">
<use xlink:href="#image0_240:2" transform="translate(-0.00954798) scale(0.00168168 0.00318471)"/>
</pattern>

</defs>
</svg>
