<svg width="24" height="24" viewBox="0 0 24 24" fill="none" xmlns="http://www.w3.org/2000/svg">
<path d="M12 17C13.6397 16.9492 15.2691 17.2769 16.7618 17.9576C18.2544 18.6383 19.5702 19.6537 20.607 20.925L18.765 21.796C17.9014 20.8753 16.8511 20.1495 15.6845 19.6673C14.5178 19.1851 13.2617 18.9576 12 19C10.738 18.9581 9.48168 19.1863 8.31501 19.6692C7.14833 20.152 6.09824 20.8785 5.235 21.8L3.394 20.928C4.43027 19.6561 5.74571 18.6401 7.23822 17.9589C8.73073 17.2776 10.3602 16.9495 12 17ZM12 2C13.3261 2 14.5978 2.52678 15.5355 3.46447C16.4732 4.40215 17 5.67392 17 7V10C16.9999 11.2885 16.5025 12.5272 15.6113 13.4578C14.7202 14.3884 13.5042 14.9391 12.217 14.995L12 15C10.6739 15 9.40215 14.4732 8.46446 13.5355C7.52678 12.5979 7 11.3261 7 10V7C7.00007 5.71154 7.49754 4.47284 8.38866 3.54222C9.27977 2.61161 10.4957 2.06092 11.783 2.005L12 2ZM12 4C11.2339 3.99868 10.4964 4.29048 9.93855 4.81557C9.38074 5.34065 9.04494 6.05924 9 6.824V7V10C8.99924 10.7809 9.30302 11.5313 9.84677 12.0918C10.3905 12.6523 11.1314 12.9787 11.912 13.0016C12.6925 13.0245 13.4513 12.7422 14.027 12.2145C14.6027 11.6869 14.9499 10.9556 14.995 10.176L15 10V7C15 6.20435 14.6839 5.44129 14.1213 4.87868C13.5587 4.31607 12.7956 4 12 4V4Z" fill="black"/>
</svg>
